<?xml version="1.0" encoding="UTF-8"?>
<svg xmlns="http://www.w3.org/2000/svg" version="1.1" viewBox="0 0 1792.9 381.5">
  <defs>
    <style>
      .cls-1 {
        fill: #fff;
      }

      .cls-2 {
        fill: #d95a13;
      }

      .cls-3 {
        display: none;
      }
    </style>
  </defs>
  <!-- Generator: Adobe Illustrator 28.7.1, SVG Export Plug-In . SVG Version: 1.2.0 Build 142)  -->
  <g>
    <g id="Layer_1">
      <rect class="cls-3" x="-2687.2" y="-1120.6" width="7602.9" height="2812.2"/>
      <g>
        <path class="cls-1" d="M333.3,169.9c15.6,16,23.4,38.3,23.4,66.9v124.7h-53.7v-117.4c0-16.9-4.2-29.9-12.7-38.9-8.4-9.1-20-13.6-34.5-13.6s-26.5,4.5-35.1,13.6-12.9,22.1-12.9,38.9v117.4h-53.7v-212.5h53.7v26.5c7.2-9.2,16.3-16.4,27.4-21.7,11.1-5.2,23.3-7.9,36.6-7.9,25.3,0,45.8,8,61.4,24h0Z"/>
        <path class="cls-1" d="M470.3,193.1v102.8c0,7.2,1.7,12.3,5.2,15.5,3.5,3.2,9.3,4.8,17.5,4.8h24.9v45.3h-33.8c-45.3,0-67.9-22-67.9-66v-102.4h-25.3v-44.1h25.3v-52.6h54.1v52.6h47.6v44.1h-47.6,0Z"/>
        <path class="cls-1" d="M752.6,271.3h-155.4c1.3,15.3,6.7,27.4,16.1,36.1,9.5,8.7,21.1,13,34.9,13,20,0,34.1-8.6,42.6-25.7h57.9c-6.1,20.5-17.9,37.3-35.3,50.4-17.4,13.2-38.7,19.8-64.1,19.8s-38.8-4.5-55-13.6c-16.2-9.1-28.9-21.9-38-38.5-9.1-16.6-13.6-35.8-13.6-57.5s4.5-41.3,13.4-57.9c9-16.6,21.5-29.4,37.6-38.4,16.1-8.9,34.7-13.4,55.6-13.4s38.3,4.4,54.3,13c16,8.7,28.4,21,37.2,37,8.8,16,13.2,34.3,13.2,55s-.5,14.6-1.5,20.7h0ZM698.5,235.3c-.3-13.8-5.2-24.9-15-33.2-9.7-8.3-21.6-12.5-35.7-12.5s-24.5,4-33.6,12.1c-9.1,8.1-14.6,19.2-16.7,33.6h100.9,0Z"/>
        <path class="cls-1" d="M874,155.5c11.1-6.4,23.8-9.6,38.2-9.6v56.4h-14.2c-16.9,0-29.6,4-38.2,11.9-8.6,7.9-12.8,21.7-12.8,41.4v105.9h-53.7v-212.5h53.7v33c6.9-11.2,15.9-20.1,27-26.5h0Z"/>
        <path class="cls-1" d="M1045.7,193.1h-37.2v168.4h-54.5v-168.4h-24.2v-44.1h24.2v-10.7c0-26.1,7.4-45.3,22.2-57.5,14.8-12.3,37.2-18,67.1-17.3v45.3c-13-.2-22.1,1.9-27.2,6.5s-7.7,12.9-7.7,24.9v8.8h37.2v44.1h0Z"/>
        <path class="cls-1" d="M1079.6,197.3c8.6-16.6,20.2-29.4,34.9-38.4,14.7-8.9,31.1-13.4,49.3-13.4s29.7,3.2,41.6,9.6c11.9,6.4,21.4,14.4,28.6,24.2v-30.3h54.1v212.5h-54.1v-31.1c-6.9,10-16.4,18.2-28.6,24.7-12.2,6.5-26.2,9.8-42,9.8s-34.2-4.6-48.9-13.8c-14.7-9.2-26.3-22.2-34.9-38.9-8.6-16.8-12.8-36-12.8-57.7s4.3-40.5,12.8-57.2h0ZM1226.3,221.7c-5.1-9.3-12-16.5-20.7-21.5-8.7-5-18-7.5-28-7.5s-19.2,2.4-27.6,7.3-15.3,12-20.5,21.3c-5.2,9.3-7.9,20.4-7.9,33.2s2.6,24,7.9,33.6,12.1,16.9,20.7,22.1c8.6,5.1,17.7,7.7,27.4,7.7s19.3-2.5,28-7.5c8.7-5,15.6-12.1,20.7-21.5,5.1-9.3,7.7-20.5,7.7-33.6s-2.6-24.2-7.7-33.6h0Z"/>
        <path class="cls-1" d="M1340.3,197.5c8.9-16.5,21.3-29.3,37.2-38.4,15.8-9.1,34-13.6,54.5-13.6s48.1,6.6,65.4,19.8c17.3,13.2,28.8,31.6,34.7,55.4h-57.9c-3.1-9.2-8.2-16.4-15.5-21.7s-16.3-7.9-27-7.9c-15.3,0-27.5,5.6-36.4,16.7-8.9,11.1-13.4,26.9-13.4,47.4s4.5,35.9,13.4,47c8.9,11.1,21.1,16.7,36.4,16.7,21.7,0,35.9-9.7,42.6-29.1h57.9c-5.9,23-17.5,41.3-34.9,54.9-17.4,13.6-39.1,20.3-65.2,20.3s-38.6-4.5-54.5-13.6c-15.9-9.1-28.3-21.9-37.2-38.4-8.9-16.5-13.4-35.7-13.4-57.7s4.5-41.2,13.4-57.7h0Z"/>
        <path class="cls-1" d="M1767.6,271.3h-155.4c1.3,15.3,6.7,27.4,16.1,36.1,9.5,8.7,21.1,13,34.9,13,19.9,0,34.1-8.6,42.6-25.7h57.9c-6.1,20.5-17.9,37.3-35.3,50.4s-38.7,19.8-64.1,19.8-38.8-4.5-55.1-13.6c-16.2-9.1-28.9-21.9-38-38.5-9.1-16.6-13.6-35.8-13.6-57.5s4.5-41.3,13.4-57.9c8.9-16.6,21.5-29.4,37.6-38.4s34.7-13.4,55.6-13.4,38.3,4.4,54.3,13c16,8.7,28.4,21,37.2,37,8.8,16,13.2,34.3,13.2,55s-.5,14.6-1.5,20.7h0ZM1713.5,235.3c-.3-13.8-5.2-24.9-15-33.2-9.7-8.3-21.6-12.5-35.7-12.5s-24.5,4-33.6,12.1c-9.1,8.1-14.6,19.2-16.7,33.6h100.9,0Z"/>
      </g>
    </g>
    <g id="Layer_2">
      <polygon class="cls-1" points="100.4 149 100.4 361.5 46.7 361.5 46.7 149 100.4 149 100.4 149"/>
    </g>
    <g id="Layer_3">
      <path class="cls-2" d="M73.6,16.1c30.8,0,55.8,25,55.8,55.8s-25,55.8-55.8,55.8-55.8-25-55.8-55.8,25-55.8,55.8-55.8Z"/>
    </g>
  </g>
</svg>